<svg xmlns="http://www.w3.org/2000/svg" width="256" height="231" fill="none"><g fill="#005475" clip-path="url(#a)"><path d="M17.17 113.4h11.025c.023.77.056 1.551.097 2.324l.012.225h5.984l-.015-.251a94 94 0 0 1-.11-8.025l.008-.246H23.147c.09-3.191.316-6.352.67-9.4.364-3.139.878-6.28 1.528-9.34a101 101 0 0 1 2.403-9.153c.918-2.931 1.998-5.91 3.21-8.86l10.072 4.484.094-.227a97 97 0 0 1 3.13-6.86 92 92 0 0 1 3.619-6.488 91 91 0 0 1 4.139-6.17 97 97 0 0 1 4.69-5.905l.16-.186-8.566-6.937a108 108 0 0 1 6.436-6.884 101 101 0 0 1 7.064-6.296 101 101 0 0 1 7.629-5.602 109 109 0 0 1 8.07-4.865l5.005 9.824.215-.119a96 96 0 0 1 6.752-3.36 91 91 0 0 1 6.895-2.765 91 91 0 0 1 7.099-2.19 96 96 0 0 1 7.362-1.637l.242-.044-2.293-10.784a109 109 0 0 1 9.334-1.3c3.149-.296 6.329-.447 9.453-.447s6.304.151 9.453.447c3.057.289 6.194.725 9.334 1.3l-2.292 10.784.241.044a96 96 0 0 1 7.362 1.637 91 91 0 0 1 13.993 4.954 97 97 0 0 1 6.752 3.361l.215.118 5.005-9.823a109 109 0 0 1 8.071 4.865 101 101 0 0 1 7.629 5.601 101 101 0 0 1 7.065 6.297 109 109 0 0 1 6.435 6.884l-8.567 6.938.16.184a97 97 0 0 1 4.691 5.907 91 91 0 0 1 4.139 6.169 91 91 0 0 1 3.617 6.487 96 96 0 0 1 3.132 6.862l.094.227 10.071-4.485a108 108 0 0 1 3.211 8.86c.946 3.02 1.754 6.1 2.403 9.153a101 101 0 0 1 1.528 9.34c.353 3.053.579 6.213.669 9.4h-11.024l.008.245c.078 2.67.041 5.37-.109 8.026l-.014.251h5.983l.012-.225c.041-.761.074-1.544.097-2.324h11.025l.006-.231c.429-17.245-3.259-34.594-10.665-50.173l-.1-.21-10.071 4.484a98 98 0 0 0-10.459-17.066l8.567-6.938-.142-.184c-10.518-13.673-24.302-24.835-39.862-32.28l-.209-.1-5.005 9.823a98 98 0 0 0-18.869-6.682l2.293-10.784-.226-.054c-16.779-4.006-34.515-4.006-51.294 0l-.225.054 2.291 10.783a98.3 98.3 0 0 0-18.868 6.681l-5.005-9.821-.21.1c-15.56 7.445-29.345 18.608-39.862 32.28l-.142.184 8.568 6.938A98 98 0 0 0 38 67.27l-10.072-4.483-.1.209c-7.407 15.58-11.095 32.93-10.664 50.173z"/><path d="m204.283 115.694-.019.254h5.989l.015-.222a83 83 0 0 0 .171-5.312c0-45.7-37.18-82.88-82.88-82.88s-82.877 37.178-82.88 82.88c0 1.77.057 3.557.17 5.312l.016.222h5.987l-.017-.254a77.5 77.5 0 0 1 1.382-20.78 76.4 76.4 0 0 1 4.48-14.436 77 77 0 0 1 7.09-13.063 77.4 77.4 0 0 1 9.392-11.382c3.48-3.48 7.31-6.64 11.382-9.39a77 77 0 0 1 13.063-7.092 76.7 76.7 0 0 1 14.436-4.48c10.134-2.074 20.866-2.074 30.999 0a76.6 76.6 0 0 1 14.436 4.48 77 77 0 0 1 13.062 7.091 77.42 77.42 0 0 1 20.774 20.773 76.483 76.483 0 0 1 11.571 27.499 77.5 77.5 0 0 1 1.562 15.5v.006c0 1.752-.06 3.526-.181 5.274M147.184 169.421c.256.336.556.624.892.857.316.22.642.373 1.023.484.399.115.828.173 1.276.173.431 0 .847-.056 1.236-.167a3.4 3.4 0 0 0 1.015-.469q.506-.343.904-.838.354-.444.605-1.031c.188-.441.327-.927.425-1.486.108-.618.163-1.311.163-2.06 0-.633-.053-1.229-.158-1.774a6.2 6.2 0 0 0-.413-1.358 5 5 0 0 0-.595-1.018v-.001a4 4 0 0 0-.897-.862 3.4 3.4 0 0 0-1.023-.486 4.5 4.5 0 0 0-1.262-.174c-.432 0-.848.057-1.237.167a3.5 3.5 0 0 0-1.019.473 4.1 4.1 0 0 0-.907.841l-.001.001a4.5 4.5 0 0 0-.605 1.017 6.4 6.4 0 0 0-.42 1.426 11 11 0 0 0-.159 1.937c0 .684.052 1.322.155 1.896.094.526.228.99.41 1.419.162.384.361.732.592 1.033m.581-4.34v-.005c0-.709.051-1.345.152-1.89.091-.494.219-.903.392-1.251q.23-.46.55-.761c.2-.187.411-.317.666-.409q.387-.141.844-.143h.012q.404.001.762.121c.234.078.432.19.623.35q.31.26.541.641l.003.004.003.005c.135.224.252.483.348.769.104.314.182.654.236 1.041.057.412.087.869.087 1.357v.01a11.3 11.3 0 0 1-.154 1.962 5 5 0 0 1-.397 1.295 2.7 2.7 0 0 1-.554.784 1.9 1.9 0 0 1-.664.419 2.4 2.4 0 0 1-.834.144h-.012a2.5 2.5 0 0 1-.846-.141 1.9 1.9 0 0 1-.665-.409 2.6 2.6 0 0 1-.549-.757 4.7 4.7 0 0 1-.392-1.247 10.4 10.4 0 0 1-.152-1.884zM102.816 161.019l-.004.003a2.1 2.1 0 0 1-.494.225c-.22.071-.477.128-.787.174-.33.049-.713.084-1.136.104v1.182h3.034v7.984h1.739v-11.227h-1.354a4.4 4.4 0 0 1-.291.725c-.103.196-.213.36-.339.504a1.8 1.8 0 0 1-.363.323zM136.91 163.975a3 3 0 0 1-.44.387 8 8 0 0 1-.774.486c-.337.189-.734.392-1.18.603l-.005.002c-.561.266-1.069.538-1.51.809a8 8 0 0 0-1.048.746q-.406.345-.666.683-.262.34-.454.756c-.14.304-.247.626-.327.986a7 7 0 0 0-.153 1.257h8.776v-1.41h-6.902v.001l-.005-.001h-.005v-.002h-.002l.002-.004v-.005a2.8 2.8 0 0 1 .468-.889q.155-.195.349-.367l.004-.004.004-.004c.118-.104.29-.23.5-.364.229-.147.506-.306.847-.487.368-.194.793-.405 1.263-.624l.005-.003c.451-.211.863-.426 1.225-.638.341-.201.632-.394.886-.593q.354-.274.601-.548.254-.283.43-.608c.119-.221.207-.451.268-.702q.098-.402.098-.845c0-.365-.048-.712-.145-1.031a2.7 2.7 0 0 0-.389-.798c-.17-.24-.38-.458-.622-.646a4 4 0 0 0-.802-.479 4.5 4.5 0 0 0-.985-.311 6.4 6.4 0 0 0-1.252-.117c-.466 0-.908.045-1.312.133a4.2 4.2 0 0 0-1.011.352 3.8 3.8 0 0 0-.815.556q-.346.312-.592.725c-.179.301-.31.63-.402 1.008a5.8 5.8 0 0 0-.153 1.377h1.735c.001-.333.033-.642.096-.918a2.5 2.5 0 0 1 .248-.66q.154-.272.366-.477l.004-.004.004-.004a2.33 2.33 0 0 1 1.108-.594c.233-.055.484-.083.745-.083h.012c.246 0 .483.024.702.07.205.042.391.104.57.188q.258.124.469.295h.001l.004.003.004.004q.217.178.367.396c.101.146.174.299.225.469q.08.268.081.573v.01q0 .249-.058.487a2 2 0 0 1-.167.437 2.3 2.3 0 0 1-.284.412l-.004.005zM118.127 169.421a1.8 1.8 0 0 1-.572-.279 1.7 1.7 0 0 1-.44-.471 2.5 2.5 0 0 1-.311-.742h-1.74c.059.43.164.82.312 1.159.133.306.301.568.514.802.198.218.423.397.688.549.278.158.584.275.935.358.394.092.833.139 1.306.139.482 0 .945-.064 1.375-.19.41-.12.76-.289 1.101-.53.361-.255.684-.573.959-.943.246-.33.459-.708.636-1.123.194-.461.339-.958.441-1.519.112-.613.169-1.289.169-2.008 0-.667-.056-1.284-.165-1.834a5.5 5.5 0 0 0-.425-1.324 4 4 0 0 0-.606-.92 4 4 0 0 0-.89-.738 3.8 3.8 0 0 0-1.042-.436 5.2 5.2 0 0 0-1.31-.16c-.458 0-.893.048-1.293.142a4 4 0 0 0-1.004.376 3.7 3.7 0 0 0-.814.602c-.236.232-.44.492-.606.772-.17.287-.295.588-.382.921a4.5 4.5 0 0 0-.142 1.146c0 .401.048.781.141 1.127a3.2 3.2 0 0 0 .95 1.556l.001.001a3.7 3.7 0 0 0 1.713.877 5.3 5.3 0 0 0 1.158.122c.476 0 .923-.06 1.326-.178.375-.109.685-.26.977-.477.3-.222.559-.498.769-.819l.001-.004.002.001.001-.002.004.002.005.001v.001l.002.001-.003.004a16 16 0 0 1-.329 1.548 7 7 0 0 1-.368 1.06c-.12.266-.255.496-.389.664l-.004.005-.003.004a2.4 2.4 0 0 1-.526.485c-.188.127-.38.215-.603.278a2.7 2.7 0 0 1-.731.097h-.012q-.426 0-.776-.103m3.373-6.314v.005q0 .38-.091.707a2.02 2.02 0 0 1-.617.992l-.004.004-.005.003q-.229.201-.501.341a2.4 2.4 0 0 1-.584.207c-.22.05-.457.075-.702.076h-.013a3 3 0 0 1-.699-.078 2.23 2.23 0 0 1-1.056-.566l-.004-.004-.004-.003a2 2 0 0 1-.347-.442 2.2 2.2 0 0 1-.229-.572 3.2 3.2 0 0 1-.084-.736v-.01c.001-.265.03-.514.088-.739.054-.211.13-.399.235-.576q.146-.246.355-.442l.004-.004.001-.001.003-.003a2.3 2.3 0 0 1 1.065-.566 3.2 3.2 0 0 1 .7-.078h.012q.373.001.706.084a2.24 2.24 0 0 1 1.082.627l.003.003.001.001.003.003v.001a2.363 2.363 0 0 1 .598 1.069q.083.327.084.692zM104.928 185.418v5.113H94.076v-5.113h-6.748v14.29h6.748v-5.113h10.852v5.113h6.748v-14.29zM143.441 185.418v4.042h8.876v10.248h6.595V189.46h8.877v-4.042zM130.949 185.418h-6.781v14.29h6.781zM57.613 127.122h-2.152v3.492h2.152zM54.211 127.122H52.06v3.492h2.152zM50.81 127.122h-2.153v3.492h2.152zM47.407 127.122h-2.152v3.492h2.152zM44.005 127.122h-2.152v3.492h2.152zM57.613 131.946h-2.152v3.492h2.152zM54.211 131.946H52.06v3.492h2.152zM50.81 131.946h-2.153v3.492h2.152zM47.407 131.946h-2.152v3.492h2.152zM44.005 131.946h-2.152v3.492h2.152zM57.613 136.77h-2.152v3.493h2.152zM66.32 128.694h-2.152v3.493h2.152zM66.32 133.518h-2.152v3.493h2.152zM66.32 138.343h-2.152v3.492h2.152zM54.211 136.77H52.06v3.493h2.152zM50.81 136.77h-2.153v3.493h2.152zM47.407 136.77h-2.152v3.493h2.152zM44.005 136.77h-2.152v3.493h2.152zM57.613 141.594h-2.152v3.492h2.152zM54.211 141.594H52.06v3.492h2.152zM50.81 141.594h-2.153v3.492h2.152zM47.407 141.594h-2.152v3.492h2.152zM44.005 141.594h-2.152v3.492h2.152zM76.873 120.742h-2.152v3.493h2.152z"/><path d="M75.798 114.905c-.594 0-1.076.481-1.076 1.076v3.041h2.152v-3.041c0-.595-.482-1.076-1.076-1.076M76.873 125.954h-2.152v3.493h2.152zM76.873 131.168h-2.152v3.492h2.152zM76.873 136.381h-2.152v3.492h2.152zM76.873 141.594h-2.152v3.492h2.152zM80.803 120.742h-2.152v3.493h2.152zM79.727 114.905c-.594 0-1.076.481-1.076 1.076v3.041h2.152v-3.041c0-.595-.482-1.076-1.076-1.076M80.803 125.954h-2.152v3.493h2.152zM80.803 131.168h-2.152v3.492h2.152zM80.803 136.381h-2.152v3.492h2.152zM80.803 141.594h-2.152v3.492h2.152zM84.733 120.742h-2.152v3.493h2.152zM83.657 114.905c-.595 0-1.076.481-1.076 1.076v3.041h2.152v-3.041c0-.595-.482-1.076-1.076-1.076M84.733 125.954h-2.152v3.493h2.152zM84.733 131.168h-2.152v3.492h2.152zM84.733 136.381h-2.152v3.492h2.152zM84.733 141.594h-2.152v3.492h2.152zM88.662 120.742H86.51v3.493h2.152zM87.586 114.905c-.594 0-1.076.481-1.076 1.076v3.041h2.152v-3.041c0-.595-.48-1.076-1.076-1.076M88.662 125.954H86.51v3.493h2.152zM88.662 131.168H86.51v3.492h2.152zM88.662 136.381H86.51v3.492h2.152zM88.662 141.594H86.51v3.492h2.152zM92.592 120.742H90.44v3.493h2.152zM91.516 114.905c-.594 0-1.076.481-1.076 1.076v3.041h2.152v-3.041c0-.595-.482-1.076-1.076-1.076M92.592 125.954H90.44v3.493h2.152zM92.592 131.168H90.44v3.492h2.152zM92.592 136.381H90.44v3.492h2.152zM92.592 141.594H90.44v3.492h2.152zM96.521 120.742H94.37v3.493h2.152zM95.446 114.905c-.594 0-1.076.481-1.076 1.076v3.041h2.151v-3.041c0-.595-.481-1.076-1.076-1.076M96.521 125.954H94.37v3.493h2.152zM96.521 131.168H94.37v3.492h2.152zM96.521 136.381H94.37v3.492h2.152zM96.521 141.594H94.37v3.492h2.152zM100.451 120.742h-2.152v3.493h2.152zM99.375 114.905c-.594 0-1.076.481-1.076 1.076v3.041h2.152v-3.041c0-.595-.482-1.076-1.076-1.076M100.451 125.954h-2.152v3.493h2.152zM100.451 131.168h-2.152v3.492h2.152zM100.451 136.381h-2.152v3.492h2.152zM100.451 141.594h-2.152v3.492h2.152zM104.381 120.742h-2.152v3.493h2.152zM103.305 114.905c-.594 0-1.076.481-1.076 1.076v3.041h2.152v-3.041c0-.595-.482-1.076-1.076-1.076M104.381 125.954h-2.152v3.493h2.152zM104.381 131.168h-2.152v3.492h2.152zM104.381 136.381h-2.152v3.492h2.152zM104.381 141.594h-2.152v3.492h2.152zM108.311 120.742h-2.152v3.493h2.152zM108.311 115.981a1.076 1.076 0 0 0-2.152 0v3.041h2.152zM108.311 125.955h-2.152v3.493h2.152zM112.24 120.742h-2.152v3.493h2.152zM112.241 115.981a1.077 1.077 0 0 0-2.152 0v3.041h2.152zM112.24 125.955h-2.152v3.493h2.152zM26.368 127.122h-2.152v3.492h2.152zM26.368 131.946h-2.152v3.492h2.152zM26.368 136.77h-2.152v3.493h2.152zM26.368 141.594h-2.152v3.492h2.152zM31.078 127.122h-2.152v3.492h2.152zM31.078 131.946h-2.152v3.492h2.152zM31.078 136.77h-2.152v3.493h2.152zM31.078 141.594h-2.152v3.492h2.152zM34.44 127.122h-2.153v3.492h2.152zM34.44 131.946h-2.153v3.492h2.152zM34.44 136.77h-2.153v3.493h2.152zM34.44 141.594h-2.153v3.492h2.152zM21.51 127.122h-2.153v3.492h2.152zM18.107 127.122h-2.152v3.492h2.152zM14.705 127.122h-2.152v3.492h2.152zM11.302 127.122H9.15v3.492h2.152zM7.901 127.122H5.75v3.492h2.152zM21.51 131.946h-2.153v3.492h2.152zM18.107 131.946h-2.152v3.492h2.152zM14.705 131.946h-2.152v3.492h2.152zM11.302 131.946H9.15v3.492h2.152zM7.901 131.946H5.75v3.492h2.152zM21.51 136.77h-2.153v3.493h2.152zM18.107 136.77h-2.152v3.493h2.152zM14.705 136.77h-2.152v3.493h2.152zM11.302 136.77H9.15v3.493h2.152zM7.901 136.77H5.75v3.493h2.152zM21.51 141.594h-2.153v3.492h2.152zM18.107 141.594h-2.152v3.492h2.152zM14.705 141.594h-2.152v3.492h2.152zM11.302 141.594H9.15v3.492h2.152zM7.901 141.594H5.75v3.492h2.152zM39.118 127.122h-2.152v3.492h2.152zM39.118 131.946h-2.152v3.492h2.152zM39.118 136.77h-2.152v3.493h2.152zM39.118 141.594h-2.152v3.492h2.152zM118.613 108.373h.015v-3.492h-2.1670000000000003v3.492h2.152M118.613 113.586h.015v-3.492h-2.1670000000000003v3.492h2.152M118.613 118.799h.015v-3.492h-2.1670000000000003v3.492h2.152M118.613 124.012h.015v-3.492h-2.1670000000000003v3.492h2.152M118.613 129.225h.015v-3.493h-2.1670000000000003v3.493h2.152M124.642 108.373h.008v-3.492h-2.16v3.492h2.152M124.642 113.586h.008v-3.492h-2.16v3.492h2.152M124.642 118.799h.008v-3.492h-2.16v3.492h2.152M124.642 124.012h.008v-3.492h-2.16v3.492h2.152M124.642 129.225h.008v-3.493h-2.16v3.493h2.152M125.285 83.388h.008v-3.492h-2.16v3.492h2.152M125.285 97.12h.008v-3.492h-2.16v3.492h2.152M125.285 88.01h.008v-3.492h-2.16v3.492h2.152M121.635 75.552h2.397v.726h.369v-.726h.505V74.54h-1.451v-.2l.944-.735v-2.236l-.944.735v-.735h-1.243l.001.735-.944-.735v2.236s.943.735.944.73v.205h-1.451v1.013h.504v.726h.369zm.947-3.815h.504v2.801h-.504zm-1.451 3.171h3.405v.274h-3.405zM199.656 127.122h-2.152v3.492h2.152zM203.058 127.122h-2.152v3.492h2.152zM206.46 127.122h-2.152v3.492h2.152zM209.863 127.122h-2.152v3.492h2.152zM213.265 127.122h-2.152v3.492h2.152zM199.656 131.946h-2.152v3.492h2.152zM203.058 131.946h-2.152v3.492h2.152zM206.46 131.946h-2.152v3.492h2.152zM209.863 131.946h-2.152v3.492h2.152zM213.265 131.946h-2.152v3.492h2.152zM199.656 136.77h-2.152v3.493h2.152zM190.949 128.694h-2.152v3.493h2.152zM190.949 133.518h-2.152v3.493h2.152zM190.949 138.343h-2.152v3.492h2.152zM203.058 136.77h-2.152v3.493h2.152zM206.46 136.77h-2.152v3.493h2.152zM209.863 136.77h-2.152v3.493h2.152zM213.265 136.77h-2.152v3.493h2.152zM199.656 141.594h-2.152v3.492h2.152zM203.058 141.594h-2.152v3.492h2.152zM206.46 141.594h-2.152v3.492h2.152zM209.863 141.594h-2.152v3.492h2.152zM213.265 141.594h-2.152v3.492h2.152zM180.396 120.742h-2.152v3.493h2.152zM179.32 114.905c.594 0 1.076.481 1.076 1.076v3.041h-2.152v-3.041c0-.595.482-1.076 1.076-1.076M180.396 125.954h-2.152v3.493h2.152zM180.396 131.168h-2.152v3.492h2.152zM180.396 136.381h-2.152v3.492h2.152zM180.396 141.594h-2.152v3.492h2.152zM176.466 120.742h-2.152v3.493h2.152zM175.39 114.905c.594 0 1.076.481 1.076 1.076v3.041h-2.152v-3.041c0-.595.482-1.076 1.076-1.076M176.466 125.954h-2.152v3.493h2.152zM176.466 131.168h-2.152v3.492h2.152zM176.466 136.381h-2.152v3.492h2.152zM176.466 141.594h-2.152v3.492h2.152zM172.537 120.742h-2.152v3.493h2.152zM171.461 114.905c.594 0 1.076.481 1.076 1.076v3.041h-2.152v-3.041c0-.595.482-1.076 1.076-1.076M172.537 125.954h-2.152v3.493h2.152zM172.537 131.168h-2.152v3.492h2.152zM172.537 136.381h-2.152v3.492h2.152zM172.537 141.594h-2.152v3.492h2.152zM168.607 120.742h-2.152v3.493h2.152zM167.531 114.905c.594 0 1.076.481 1.076 1.076v3.041h-2.152v-3.041c0-.595.482-1.076 1.076-1.076M168.607 125.954h-2.152v3.493h2.152zM168.607 131.168h-2.152v3.492h2.152zM168.607 136.381h-2.152v3.492h2.152zM168.607 141.594h-2.152v3.492h2.152zM164.677 120.742h-2.152v3.493h2.152zM163.601 114.905c.595 0 1.076.481 1.076 1.076v3.041h-2.152v-3.041c0-.595.482-1.076 1.076-1.076M164.677 125.954h-2.152v3.493h2.152zM164.677 131.168h-2.152v3.492h2.152zM164.677 136.381h-2.152v3.492h2.152zM164.677 141.594h-2.152v3.492h2.152zM160.748 120.742h-2.152v3.493h2.152zM159.672 114.905c.594 0 1.076.481 1.076 1.076v3.041h-2.152v-3.041c0-.595.482-1.076 1.076-1.076M160.748 125.954h-2.152v3.493h2.152zM160.748 131.168h-2.152v3.492h2.152zM160.748 136.381h-2.152v3.492h2.152zM160.748 141.594h-2.152v3.492h2.152zM156.818 120.742h-2.152v3.493h2.152zM155.742 114.905c.594 0 1.076.481 1.076 1.076v3.041h-2.152v-3.041c0-.595.482-1.076 1.076-1.076M156.818 125.954h-2.152v3.493h2.152zM156.818 131.168h-2.152v3.492h2.152zM156.818 136.381h-2.152v3.492h2.152zM156.818 141.594h-2.152v3.492h2.152zM152.888 120.742h-2.152v3.493h2.152zM151.813 114.905c.594 0 1.076.481 1.076 1.076v3.041h-2.152v-3.041c0-.595.482-1.076 1.076-1.076M152.888 125.954h-2.152v3.493h2.152zM152.888 131.168h-2.152v3.492h2.152zM152.888 136.381h-2.152v3.492h2.152zM152.888 141.594h-2.152v3.492h2.152zM148.959 120.742h-2.152v3.493h2.152zM146.807 115.981a1.076 1.076 0 0 1 2.152 0v3.041h-2.152zM148.959 125.955h-2.152v3.493h2.152zM145.029 120.742h-2.152v3.493h2.152zM142.877 115.981a1.076 1.076 0 0 1 2.152 0v3.041h-2.152zM145.029 125.955h-2.152v3.493h2.152zM230.902 127.122h-2.152v3.492h2.152zM230.902 131.946h-2.152v3.492h2.152zM230.902 136.77h-2.152v3.493h2.152zM230.902 141.594h-2.152v3.492h2.152zM226.192 127.122h-2.152v3.492h2.152zM226.192 131.946h-2.152v3.492h2.152zM226.192 136.77h-2.152v3.493h2.152zM226.192 141.594h-2.152v3.492h2.152zM222.831 127.122h-2.152v3.492h2.152zM222.831 131.946h-2.152v3.492h2.152zM222.831 136.77h-2.152v3.493h2.152zM222.831 141.594h-2.152v3.492h2.152zM235.761 127.122h-2.152v3.492h2.152zM239.162 127.122h-2.152v3.492h2.152zM242.565 127.122h-2.152v3.492h2.152zM245.967 127.122h-2.152v3.492h2.152zM249.369 127.122h-2.152v3.492h2.152zM235.761 131.946h-2.152v3.492h2.152zM239.162 131.946h-2.152v3.492h2.152zM242.565 131.946h-2.152v3.492h2.152zM245.967 131.946h-2.152v3.492h2.152zM249.369 131.946h-2.152v3.492h2.152zM235.761 136.77h-2.152v3.493h2.152zM239.162 136.77h-2.152v3.493h2.152zM242.565 136.77h-2.152v3.493h2.152zM245.967 136.77h-2.152v3.493h2.152zM249.369 136.77h-2.152v3.493h2.152zM235.761 141.594h-2.152v3.492h2.152zM239.162 141.594h-2.152v3.492h2.152zM242.565 141.594h-2.152v3.492h2.152zM245.967 141.594h-2.152v3.492h2.152zM249.369 141.594h-2.152v3.492h2.152zM218.151 127.122h-2.152v3.492h2.152zM218.151 131.946h-2.152v3.492h2.152zM218.151 136.77h-2.152v3.493h2.152zM218.151 141.594h-2.152v3.492h2.152zM136.505 108.373h-.015v-3.492h2.1670000000000003v3.492h-2.152M136.505 113.586h-.015v-3.492h2.1670000000000003v3.492h-2.152M136.505 118.799h-.015v-3.492h2.1670000000000003v3.492h-2.152M136.505 124.012h-.015v-3.492h2.1670000000000003v3.492h-2.152M136.505 129.225h-.015v-3.493h2.1670000000000003v3.493h-2.152M128.631 104.881h-2.152v3.492h2.16v-3.492zM128.631 110.094h-2.152v3.492h2.16v-3.492zM128.631 115.307h-2.152v3.492h2.16v-3.492zM128.631 120.52h-2.152v3.492h2.16v-3.492zM128.631 125.732h-2.152v3.493h2.16v-3.493zM130.476 108.373h-.008v-3.492h2.16v3.492h-2.152M130.476 113.586h-.008v-3.492h2.16v3.492h-2.152M130.476 118.799h-.008v-3.492h2.16v3.492h-2.152M130.476 124.012h-.008v-3.492h2.16v3.492h-2.152M130.476 129.225h-.008v-3.493h2.16v3.493h-2.152M137.835 132.512h-20.553v3.003h20.553zm-.37 2.634h-19.813v-2.265h19.813zM128.631 79.896h-2.152v3.492h2.16v-3.492zM129.833 83.388h-.008v-3.492h2.16v3.492h-2.152M128.631 93.628h-2.152v3.492h2.16v-3.492zM129.833 97.12h-.008v-3.492h2.16v3.492h-2.152M128.631 84.518h-2.152v3.492h2.16v-3.492zM129.833 88.01h-.008v-3.492h2.16v3.492h-2.152M133.482 76.278h.37v-.726h.504V74.54h-1.451v-.205c0 .005.944-.73.944-.73v-2.236l-.944.735v-.735h-1.243v.735l-.943-.735v2.236l.943.735v.2h-1.45v1.013h.503v.726h.37v-.726h2.397zm-.947-1.739h-.503v-2.8h.503zm-1.954.37h3.405v.273h-3.405zM126.717 46.594l.003.001v.001l.001.001-.002.002-.518 1.594 1.355-.985.002-.003.001.001h.001l.002.002 1.355.985-.517-1.594-.002-.002h.001l-.001-.002h.004l1.355-.985h-1.676l-.003.001h-.001v-.005l-.518-1.592-.517 1.592v.004h-.001l-.001.001h-1.678z"/><path d="M246.042 122.016s-.921-.189-1.869-.192c-.947-.004-9.123 0-9.123 0s-.602.008-1.497-.285-9.956-3.303-9.956-3.303-9.062 3.01-9.957 3.303-1.496.285-1.496.285-8.176-.004-9.124 0c-.947.003-1.868.192-1.868.192l-9.076 1.95v.817h.32v.854h-5.738l-.025-11.218v-.028l2.306-1.492v-1.054s-6.321-1.006-10.695-1.699c-4.374-.692-6.565-.601-6.565-.601h-30.907v-6.997h.892l1.237-.74v-1.192h-2.498v-.646h.619v-1.152h-3.935v-5.984h.667c.004 0 .004-1.048.004-1.048h.073l1.238-.74v-1.192h-.841v-.678h.619v-1.153h-2.421l1.298-1.588v-2.236l-1.298 1.589v-1.619h-1.243v1.619l-1.299-1.589v2.236l1.299 1.588h-1.664v-9.369h.573v-1.008h.091l.889-.532v-.835h-5.761a7 7 0 0 1 .108-.284q.269-.64.553-1.273l.011-.025q.075-.17.152-.34c.114-.247.103-.454-.045-.68-.243-.372-.467-.757-.722-1.171.147-.235.28-.476.443-.699.179-.253.168-.449-.056-.684a41 41 0 0 1-.408-.435c.461-.443.461-.983.359-1.628h-1.482l-.449-19.86 1.019-.28-.097-.267q.179-.087.34-.199l.185.215.706-.715-.217-.182a3 3 0 0 0 .195-.343l.268.094.254-.972-.279-.049a3 3 0 0 0-.003-.396l.279-.052-.266-.969-.267.097-.257.093q.103.203.165.43a2.324 2.324 0 0 1-1.626 2.856 2.3 2.3 0 0 1-.615.074c-.204 0-.41-.017-.616-.074a2.324 2.324 0 0 1-1.46-3.286l-.258-.093-.266-.097-.266.969.278.052q-.015.2-.002.396l-.279.049.254.972.268-.094q.084.178.195.343l-.218.182.706.715.185-.215q.16.111.341.199l-.097.267 1.019.28-.449 19.859-1.482.001c-.103.645-.103 1.185.358 1.628-.154.167-.28.301-.407.435-.225.235-.236.431-.056.684.162.223.295.464.442.699-.254.414-.479.799-.721 1.171-.148.226-.159.433-.046.68q.077.17.153.34l.011.025q.283.633.552 1.273c.026.06.07.177.108.284h-5.76v.835l.889.532h.091v1.008h.572v9.369h-1.663l1.299-1.588v-2.236l-1.299 1.589v-1.619h-1.243v1.619l-1.299-1.589v2.236l1.299 1.588h-2.422v1.153h.619v.678h-.84v1.192l1.237.74h.074s0 1.048.004 1.048h.667v5.984h-3.935v1.152h.619v.646h-2.498v1.192l1.237.74h.892v6.997H83.438s-2.19-.091-6.565.601c-4.374.693-10.694 1.699-10.694 1.699v1.054l2.306 1.492v.028l-.026 11.218h-5.738v-.854h.321v-.817l-9.076-1.95s-.921-.189-1.869-.192c-.947-.004-9.123 0-9.123 0s-.602.008-1.497-.285-9.956-3.303-9.956-3.303-9.062 3.01-9.957 3.303-1.496.285-1.496.285-8.176-.004-9.124 0c-.947.003-1.868.192-1.868.192L0 123.966v.817l.53.001v1.191h.69v20.681H.53v3.833h62.329l1.05-2.017.064-.123a2.061 2.061 0 0 1 1.274-3.683 2.061 2.061 0 0 1 1.186 3.749l.03.057 1.05 2.017h21.298c-.591.248-1.223.564-1.57 1.128-.279.455-.317 1.096.085 1.494.358.354.868.442 1.351.371.457-.067.99-.256 1.338-.563.91-.803 2.006-1.394 3.132-1.834 1.244-.485 2.532-.86 3.827-1.182a48 48 0 0 1 4.627-.929q.243-.037.488-.07l.018-.002a43 43 0 0 1 2.224-.242c-2.459.742-8.528 2.853-7.556 5.346q.016.038.034.075c.576 1.25 2.818 1.193 3.632.404h54.236c.813.789 3.056.846 3.631-.404q.018-.037.035-.075c.972-2.493-5.098-4.604-7.557-5.346q1.116.092 2.224.242l.019.002q.244.033.487.07.325.047.649.1c1.34.214 2.662.502 3.979.829 1.294.322 2.582.697 3.826 1.182 1.127.44 2.223 1.031 3.133 1.834.347.307.881.496 1.338.563.483.071.992-.017 1.351-.371.402-.398.364-1.039.085-1.494-.347-.564-.979-.88-1.57-1.128h21.298l1.05-2.017.03-.057a2.062 2.062 0 1 1 3.248-1.686c0 .657-.309 1.242-.789 1.62l.064.123 1.051 2.017h62.329v-3.833h-.691v-20.681h.691v-1.191l.53-.001v-.817zm-147.248 32.62c-.643 0-1.164-.332-1.208-.751-.002-.019-.009-.037-.009-.056 0-.446.545-.806 1.217-.806.413 0 .778.137.997.346a.64.64 0 0 1 .219.46c0 .445-.545.807-1.216.807m56.532-1.267c.22-.209.584-.346.998-.346.672 0 1.216.36 1.216.806 0 .019-.007.037-.009.056-.043.419-.564.751-1.207.751-.671 0-1.216-.362-1.216-.807 0-.171.082-.329.218-.46m-14.554-40.592h47.681l-1.822 1.172h-45.859zm45.495 3.529.069 30.35h-3.833v-30.35zm-3.764-.767v-.638h3.761l.002.638zm-41.731-1.221h41.361v32.338h-33.776v-8.421h.599v-.968h.403v-1.544h-1.002v-2.249h.908v-1.324h-8.493zm-26.382 22.949h2.776v.599h-2.776zm2.181 10.043h-1.585v-9.075h1.585zm.595.902h-2.776v-.598h2.776zm26.023 1.908h-31.261v-1.548h31.261zm-20.944-12.853h2.776v.599h-2.776zm2.181 10.043h-1.585v-9.075h1.585zm.596.902h-2.776v-.598h2.776zm5.074-10.945h2.776v.599h-2.776zm2.181 10.043h-1.586v-9.075h1.586zm.595.902h-2.776v-.598h2.776zm5.079-10.945h2.776v.599h-2.776zm2.181 10.043h-1.585v-9.075h1.585zm.595.902h-2.776v-.598h2.776zm2.462 2.277h3.929v1.648H108v-1.648zm-37.061-13.813h42.861v.222h-42.861zm.633-3.202v2.249h-1.002v1.544h.402v.968h.6v8.421H72.985v-32.338h41.361v17.832h-8.494v1.324zm8.761 2.833h-9.394v-.215h9.394zm-8.391-2.833h8.392v2.249h-8.392zm2.18 14.738h-2.776v-.598h2.776zm-2.18-9.977h1.585v9.075h-1.585zm-.596-.968h2.776v.599h-2.776zm33.846-34.307h-25.644v-.412h25.644zm-25.297-2.99h4.11v.646h-4.11zm3.317-1.152v-5.984h3.189v7.782h-2.026v-.646h.618v-1.152zm13.576-.649h-2.153v2.447h-1.185v-2.447h-2.16v2.447h-1.186v-2.447h-2.16v2.447h-1.165v-7.782h11.182v7.782h-1.165v-2.447zm3.577 1.801v.646h-2.026v-7.782h3.189v5.984h-1.782v1.152zm.37 0h4.109v.646h-4.109zm12.063 35.753h-8.392v-2.249h8.392zm1.002.584h-9.394v-.215h9.394zm-33.555-5.324h24.25v.496h-24.25zm23.792 5.324h-23.334v-4.458h23.334zm-18.491-32.978h13.647v27.285h-13.647zm18.86 28.52h.458v-1.235h-5.293v-27.285h5.621v28.821h-.786zm-19.238-28.52v27.285h-5.292v1.235h.457v.301h-.785v-28.821zm25.449 44.285h2.776v.598h-2.776zm2.181-.304h-1.585v-9.075h1.585zm-2.181-10.043h2.776v.599h-2.776zm3.09-4.162h-9.3v-.585h9.3zm-8.244-33.504h-5.348v-.413h5.348zm-5.1-15.062h.504v3.485h-.504zm2.926 4.268h-5.347v-.414h5.347zm-.619 1.047h-4.109v-.678h4.109zm-15.891-1.831v-9.369h11.182v9.369h-.389v1.153h.619v.678h-11.642v-.678h.619v-1.153zm7.034-11.744h-.19l.647-2.071h.415s-.554 1.336-.872 2.071m-1.746-2.373.142-1.092h.321l.143 1.092zm.606.288-.105 2.085h-.397l-.104-2.085zm-.666-1.841-.093-.411h.912l-.093.411zm-.87.461h.368l-.345 1.102h-.423zm-.107-.461-.098-.413h.352l.103.413zm.088 1.841c-.015 0 .322 1.584.408 2.085h-.224l-.606-2.085zm.192 0h.51l.187 2.085h-.315zm.527-.278-.481-.003.321-1.1.348.001zm1.225-1.103.321 1.1-.48.003-.188-1.102zm.541.001.4 1.102h-.423l-.345-1.102zm-.251-.461.104-.413h.351l-.097.413zm-.433 1.841h.511l-.382 2.085h-.315zm.703 0h.422l-.606 2.085h-.224c.086-.501.422-2.085.408-2.085m1.013-.281h-.395l-.472-1.101.195-.007zm-.808-4.456h.306v.304h-.306zm.232.674c-.021.195-.252.35-.252.35h-2.875s-.231-.155-.252-.35zm-.717-.674h.307v.304h-.307zm-.47 0h.305v.304h-.305zm-.774-.001h.544v.305h-.544zm-.536.001h.305v.304h-.305zm-.471 0h.307v.304h-.307zm-.484 0h.306v.304h-.306zm.671 1.328c.363.007 1.82.007 2.184 0 .339-.001.559.128.727.489h-3.638c.168-.361.387-.49.727-.489m-.899.822h3.982l-.44.746h-.114l.123-.504h-.561l-.134.504h-.391l.127-.505h-1.203l.128.505h-.391l-.135-.504h-.561l.124.504h-.114zm.398 1.198.194.007-.471 1.101h-.395zm-.722 1.403h.414l.647 2.071h-.19c-.317-.735-.871-2.071-.871-2.071m-4.801 2.44h14.231v.129h-14.231zm.583.628-.194-.129h13.454l-.194.129zm.404.37h12.258v.639H121.43zm-2.368 6.893h.503v3.485h-.503zm-2.422 3.854h5.347v.414h-5.347zm4.728 1.461h-4.11v-.678h4.11zm-4.928.37h22.238v.412H116.44zm.281.781h21.675l-.688.411H117.41zm1.012.781h19.651v.678h-19.651zm-3.267 7.402h5.347v.413h-5.347zm1.056 33.917h-9.3v-.585h9.3zm-48.857-20.328h47.681v1.172h-45.86zm2.187 2.762.001-.638h3.762v.638zm3.763.767v30.35h-3.834l.069-30.35zM.9 125.606v-.822l20.554.025v-.985h20.134v.985l20.764-.025v.822H40.548v-.678h-17.77v.678zm60.79 21.05h-2.402v-20.681h2.402zm-2.772 0h-18.37v-20.681h18.37zm-18.74 0h-4.25v-21.358h4.25zm-4.619 0h-7.753v-21.358h7.753zm-8.123 0h-4.289v-21.358h4.289zm-4.658 0H4.485v-20.681h18.293zm-18.663 0H1.59v-20.681h2.525zm58.52 3.464H.9v-1.549h62.541zm.685-1.918H.9v-1.177h61.933c.054.44.229.842.487 1.177m1.927-3.906a2.433 2.433 0 0 0-2.428 2.36h-.76v-19.642h6.397l-.045 19.642h-.735a2.435 2.435 0 0 0-2.429-2.36m23.816 8.455c-.455.258-1.011.208-1.242-.112-.231-.321-.049-.79.406-1.048s1.011-.208 1.241.112.049.79-.405 1.048m.761-2.631H67.737l-.806-1.549h31.555c-1.636.16-5.812.638-8.662 1.549m-22.647-1.918c.257-.335.43-.737.484-1.177h39.1v.285h-.555v.892zm40.488.369h3.894v1.549h-8.442c1.235-.725 2.83-1.296 4.548-1.549m-5.126 1.918h5.091v1.648h-6.7c.314-.572.874-1.137 1.609-1.648m1.582 3.627-3.482-.01c.044-.159.073-.298.058-.466-.015-.187-.062-.372-.053-.56a2 2 0 0 1 .118-.574h3.359zm46.506 0H104.49v-1.609h46.137zm3.847-1.036c.008.188-.038.373-.054.56-.014.168.014.307.059.466l-3.482.01v-1.61h3.358c.066.184.11.378.119.574m-.286-.943h-6.7v-1.648h5.091c.735.511 1.294 1.076 1.609 1.648M152 150.12h-8.441v-1.549h3.894c1.718.253 3.313.824 4.547 1.549m14.891 1.471c.455.258.637.727.406 1.048-.231.32-.787.37-1.242.112s-.637-.728-.406-1.048.787-.37 1.242-.112m20.49-1.471h-22.088c-2.849-.911-7.026-1.389-8.661-1.549h31.555zm.559-1.918h-39.028v-.892h-.555v-.285h39.1c.053.44.227.842.483 1.177m1.93-3.906a2.434 2.434 0 0 0-2.428 2.36h-.736l-.045-19.642h6.397v19.642h-.759a2.434 2.434 0 0 0-2.429-2.36m64.348 5.824h-61.735l-.807-1.549h62.542zm0-3.095v1.177h-62.42c.257-.335.433-.737.487-1.177zm-60.79-21.05h2.402v20.681h-2.402zm2.771 0h18.37v20.681h-18.37zm18.74-.677h4.25v21.358h-4.25zm4.62 0h7.753v21.358h-7.753zm8.122 0h4.289v21.358h-4.289zm4.659.677h18.293v20.681H232.34zm18.662 0h2.525v20.681h-2.525zm3.216-.369H232.34v-.678h-17.77v.678h-21.804v-.822l20.764.025v-.985h20.134v.985l20.554-.025z"/><path d="m211.466 182.204.151-.176c7.471-8.769 13.273-18.195 17.738-28.815l.14-.33h-6.505l-.063.141a105 105 0 0 1-5.623 10.851 105 105 0 0 1-6.722 9.926l-8.568-6.938-.149.195a94 94 0 0 1-4.288 5.225 94 94 0 0 1-3.578 3.801h-16.54c8.331-6.445 14.887-13.805 20.34-22.841l.218-.36h-7.057l-.07.106a81 81 0 0 1-4.978 6.726 74 74 0 0 1-5.518 5.98 73 73 0 0 1-6.153 5.325 81 81 0 0 1-6.881 4.762l-.635.302h-34.219v.004l-4.947 3.778-4.949-3.778v-.004H88.392l-.635-.302a81 81 0 0 1-6.88-4.762 73 73 0 0 1-6.153-5.325 73 73 0 0 1-5.519-5.98 81 81 0 0 1-4.978-6.726l-.07-.106H57.1l.218.36c5.453 9.036 12.01 16.396 20.34 22.841h-16.54a94 94 0 0 1-3.578-3.801 94 94 0 0 1-4.288-5.225l-.149-.195-8.568 6.938a105 105 0 0 1-6.722-9.926 105 105 0 0 1-5.624-10.851l-.062-.141h-6.504l.138.33c4.466 10.62 10.268 20.046 17.738 28.815l.151.176 8.568-6.938a99 99 0 0 0 3.11 3.429l-11.96 5.359-14.97 37.426h68.117l-5.072 9.211h72.231l-5.072-9.211h68.118l-14.971-37.426-11.96-5.359a99 99 0 0 0 3.11-3.429zm-89.198-5.005 5.289 4.039.002-.002.001.002 5.289-4.039 58.564-.024 10.508 28.592h-68.685l4.112 8.126h-19.579l4.112-8.126H53.196l10.508-28.592zm84.196 5.682 13.119 34.048h-68.317l4.906 9.667H98.945l4.907-9.667H35.534l13.12-34.048 5.088-2.28-11.767 32.461h68.935l-4.416 8.491h42.129l-4.416-8.491h68.935l-11.767-32.461zm-6.403-2.869 11.717 32.304H142.72l4.313 8.26h-38.95c1.391-2.661 2.705-5.178 4.313-8.26H43.338l11.718-32.304 6.334-2.837h1.324c-3.536 9.595-7.297 19.812-10.882 29.539h68.461l-4.135 8.272h22.801l-4.135-8.272h68.462c-3.586-9.727-7.347-19.944-10.883-29.539h1.325z"/></g><defs><clipPath id="a"><path fill="#fff" d="M0 0h255.118v230.691H0z"/></clipPath></defs></svg>